ffmpeg version 7.1.1 Copyright (c) 2000-2025 the FFmpeg developers
  built with Apple clang version 17.0.0 (clang-1700.0.13.3)
  configuration: --prefix=/opt/homebrew/Cellar/ffmpeg/7.1.1_3 --enable-shared --enable-pthreads --enable-version3 --cc=clang --host-cflags= --host-ldflags='-Wl,-ld_classic' --enable-ffplay --enable-gnutls --enable-gpl --enable-libaom --enable-libaribb24 --enable-libbluray --enable-libdav1d --enable-libharfbuzz --enable-libjxl --enable-libmp3lame --enable-libopus --enable-librav1e --enable-librist --enable-librubberband --enable-libsnappy --enable-libsrt --enable-libssh --enable-libsvtav1 --enable-libtesseract --enable-libtheora --enable-libvidstab --enable-libvmaf --enable-libvorbis --enable-libvpx --enable-libwebp --enable-libx264 --enable-libx265 --enable-libxml2 --enable-libxvid --enable-lzma --enable-libfontconfig --enable-libfreetype --enable-frei0r --enable-libass --enable-libopencore-amrnb --enable-libopencore-amrwb --enable-libopenjpeg --enable-libspeex --enable-libsoxr --enable-libzmq --enable-libzimg --disable-libjack --disable-indev=jack --enable-videotoolbox --enable-audiotoolbox --enable-neon
  libavutil      59. 39.100 / 59. 39.100
  libavcodec     61. 19.101 / 61. 19.101
  libavformat    61.  7.100 / 61.  7.100
  libavdevice    61.  3.100 / 61.  3.100
  libavfilter    10.  4.100 / 10.  4.100
  libswscale      8.  3.100 /  8.  3.100
  libswresample   5.  3.100 /  5.  3.100
  libpostproc    58.  3.100 / 58.  3.100
2025-07-21 13:15:43.273 ffmpeg[24565:281915] WARNING: Add NSCameraUseContinuityCameraDeviceType to your Info.plist to use AVCaptureDeviceTypeContinuityCamera.
2025-07-21 13:15:43.433 ffmpeg[24565:281915] WARNING: AVCaptureDeviceTypeExternal is deprecated for Continuity Cameras. Please use AVCaptureDeviceTypeContinuityCamera and add NSCameraUseContinuityCameraDeviceType to your Info.plist.
objc[24565]: class `NSKVONotifying_AVCaptureScreenInput' not linked into application
objc[24565]: class `NSKVONotifying_AVCaptureScreenInput' not linked into application
objc[24565]: class `NSKVONotifying_AVCaptureScreenInput' not linked into application
[AVFoundation indev @ 0x146705140] Configuration of video device failed, falling back to default.
[avfoundation @ 0x146704ed0] Selected pixel format (yuv420p) is not supported by the input device.
[avfoundation @ 0x146704ed0] Supported pixel formats:
[avfoundation @ 0x146704ed0]   uyvy422
[avfoundation @ 0x146704ed0]   yuyv422
[avfoundation @ 0x146704ed0]   nv12
[avfoundation @ 0x146704ed0]   0rgb
[avfoundation @ 0x146704ed0]   bgr0
[avfoundation @ 0x146704ed0] Overriding selected pixel format to use uyvy422 instead.
[avfoundation @ 0x146704ed0] Stream #0: not enough frames to estimate rate; consider increasing probesize
Input #0, avfoundation, from '5':
  Duration: N/A, start: 21331.386833, bitrate: N/A
  Stream #0:0: Video: rawvideo (UYVY / 0x59565955), uyvy422, 5120x2880, 1000k tbr, 1000k tbn
Stream mapping:
  Stream #0:0 -> #0:0 (rawvideo (native) -> h264 (libx264))
Press [q] to stop, [?] for help
[libx264 @ 0x146722870] MB rate (57600000000) > level limit (16711680)
[libx264 @ 0x146722870] using cpu capabilities: ARMv8 NEON
[libx264 @ 0x146722870] profile High 4:2:2, level 6.2, 4:2:2, 8-bit
[libx264 @ 0x146722870] 264 - core 164 r3108 31e19f9 - H.264/MPEG-4 AVC codec - Copyleft 2003-2023 - http://www.videolan.org/x264.html - options: cabac=0 ref=1 deblock=0:0:0 analyse=0:0 me=dia subme=0 psy=1 psy_rd=1.00:0.00 mixed_ref=0 me_range=16 chroma_me=1 trellis=0 8x8dct=0 cqm=0 deadzone=21,11 fast_pskip=1 chroma_qp_offset=0 threads=15 lookahead_threads=2 sliced_threads=0 nr=0 decimate=1 interlaced=0 bluray_compat=0 constrained_intra=0 bframes=0 weightp=0 keyint=250 keyint_min=25 scenecut=0 intra_refresh=0 rc=crf mbtree=0 crf=23.0 qcomp=0.60 qpmin=0 qpmax=69 qpstep=4 ip_ratio=1.40 aq=0
Output #0, mp4, to '/Users/maxnovo/Desktop/qa.guru/18.08 Page_Object/resources/output.mp4':
  Metadata:
    encoder         : Lavf61.7.100
  Stream #0:0: Video: h264 (avc1 / 0x31637661), yuv422p(tv, progressive), 5120x2880, q=2-31, 1000k fps, 1000k tbn
      Metadata:
        encoder         : Lavc61.19.101 libx264
      Side data:
        cpb: bitrate max/min/avg: 0/0/0 buffer size: 0 vbv_delay: N/A
frame=    0 fps=0.0 q=0.0 size=       0KiB time=N/A bitrate=N/A speed=N/A    frame=   15 fps= 15 q=13.0 size=    1280KiB time=00:00:00.46 bitrate=22470.2kbits/s speed=0.462x    frame=   30 fps= 20 q=13.0 size=    1280KiB time=00:00:00.96 bitrate=10847.7kbits/s speed=0.638x    frame=   45 fps= 22 q=13.0 size=    1280KiB time=00:00:01.46 bitrate=7149.6kbits/s speed=0.726x    frame=   60 fps= 24 q=13.0 size=    1280KiB time=00:00:01.96 bitrate=5331.9kbits/s speed=0.779x    frame=   75 fps= 25 q=13.0 size=    1280KiB time=00:00:02.46 bitrate=4251.1kbits/s speed=0.814x    frame=   90 fps= 25 q=13.0 size=    1280KiB time=00:00:02.96 bitrate=3534.7kbits/s speed=0.839x    frame=  106 fps= 26 q=13.0 size=    1280KiB time=00:00:03.50 bitrate=2996.0kbits/s speed=0.866x    frame=  120 fps= 26 q=13.0 size=    1280KiB time=00:00:03.96 bitrate=2643.6kbits/s speed=0.874x    frame=  136 fps= 27 q=13.0 size=    1536KiB time=00:00:04.50 bitrate=2796.3kbits/s speed=0.892x    frame=  151 fps= 27 q=13.0 size=    1536KiB time=00:00:05.00 bitrate=2516.7kbits/s speed=0.901x    frame=  166 fps= 27 q=13.0 size=    1536KiB time=00:00:05.50 bitrate=2287.9kbits/s speed=0.909x    frame=  181 fps= 28 q=13.0 size=    1536KiB time=00:00:06.00 bitrate=2097.2kbits/s speed=0.915x    frame=  196 fps= 28 q=13.0 size=    1536KiB time=00:00:06.50 bitrate=1935.9kbits/s speed=0.921x    frame=  211 fps= 28 q=13.0 size=    1536KiB time=00:00:07.00 bitrate=1797.6kbits/s speed=0.926x    frame=  226 fps= 28 q=13.0 size=    1536KiB time=00:00:07.50 bitrate=1677.8kbits/s speed=0.93x    frame=  241 fps= 28 q=16.0 size=    1536KiB time=00:00:08.00 bitrate=1572.9kbits/s speed=0.933x    frame=  256 fps= 28 q=13.0 size=    3072KiB time=00:00:08.50 bitrate=2960.7kbits/s speed=0.937x    frame=  271 fps= 28 q=13.0 size=    3072KiB time=00:00:09.00 bitrate=2796.2kbits/s speed=0.94x    frame=  286 fps= 28 q=13.0 size=    3072KiB time=00:00:09.50 bitrate=2649.1kbits/s speed=0.943x    frame=  302 fps= 29 q=13.0 size=    3072KiB time=00:00:10.03 bitrate=2508.3kbits/s speed=0.948x    frame=  317 fps= 29 q=13.0 size=    3072KiB time=00:00:10.53 bitrate=2389.2kbits/s speed=0.95x    frame=  332 fps= 29 q=13.0 size=    3328KiB time=00:00:11.03 bitrate=2471.0kbits/s speed=0.952x    frame=  347 fps= 29 q=13.0 size=    3328KiB time=00:00:11.53 bitrate=2363.9kbits/s speed=0.953x    frame=  362 fps= 29 q=13.0 size=    3328KiB time=00:00:12.03 bitrate=2265.7kbits/s speed=0.955x    frame=  377 fps= 29 q=13.0 size=    3328KiB time=00:00:12.53 bitrate=2175.3kbits/s speed=0.956x    frame=  392 fps= 29 q=13.0 size=    3328KiB time=00:00:13.03 bitrate=2091.8kbits/s speed=0.957x    frame=  408 fps= 29 q=13.0 size=    3328KiB time=00:00:13.56 bitrate=2009.6kbits/s speed=0.961x    frame=  423 fps= 29 q=13.0 size=    3328KiB time=00:00:14.06 bitrate=1938.2kbits/s speed=0.962x    frame=  438 fps= 29 q=13.0 size=    3328KiB time=00:00:14.56 bitrate=1871.6kbits/s speed=0.963x    frame=  453 fps= 29 q=13.0 size=    3328KiB time=00:00:15.06 bitrate=1809.5kbits/s speed=0.964x    frame=  468 fps= 29 q=13.0 size=    3328KiB time=00:00:15.56 bitrate=1751.4kbits/s speed=0.965x    frame=  483 fps= 29 q=13.0 size=    3328KiB time=00:00:16.06 bitrate=1696.9kbits/s speed=0.966x    frame=  498 fps= 29 q=13.0 size=    3584KiB time=00:00:16.56 bitrate=1772.3kbits/s speed=0.967x    frame=  513 fps= 29 q=13.0 size=    5120KiB time=00:00:17.06 bitrate=2457.6kbits/s speed=0.967x    frame=  528 fps= 29 q=13.0 size=    5120KiB time=00:00:17.56 bitrate=2387.7kbits/s speed=0.968x    frame=  543 fps= 29 q=13.0 size=    5120KiB time=00:00:18.06 bitrate=2321.6kbits/s speed=0.969x    frame=  558 fps= 29 q=13.0 size=    5120KiB time=00:00:18.56 bitrate=2259.1kbits/s speed=0.969x    frame=  574 fps= 29 q=13.0 size=    5120KiB time=00:00:19.10 bitrate=2196.0kbits/s speed=0.971x    frame=  589 fps= 29 q=13.0 size=    5120KiB time=00:00:19.60 bitrate=2140.0kbits/s speed=0.972x    frame=  604 fps= 29 q=13.0 size=    5120KiB time=00:00:20.10 bitrate=2086.7kbits/s speed=0.972x    frame=  619 fps= 29 q=13.0 size=    5120KiB time=00:00:20.60 bitrate=2036.1kbits/s speed=0.973x    frame=  634 fps= 29 q=13.0 size=    5120KiB time=00:00:21.10 bitrate=1987.8kbits/s speed=0.973x    frame=  650 fps= 29 q=13.0 size=    5120KiB time=00:00:21.63 bitrate=1938.8kbits/s speed=0.975x    frame=  664 fps= 29 q=13.0 size=    5120KiB time=00:00:22.10 bitrate=1897.9kbits/s speed=0.974x    frame=  679 fps= 29 q=13.0 size=    5376KiB time=00:00:22.60 bitrate=1948.7kbits/s speed=0.974x    frame=  695 fps= 29 q=13.0 size=    5376KiB time=00:00:23.13 bitrate=1903.8kbits/s speed=0.976x    frame=  710 fps= 29 q=13.0 size=    5376KiB time=00:00:23.63 bitrate=1863.5kbits/s speed=0.976x    frame=  725 fps= 29 q=13.0 size=    5376KiB time=00:00:24.13 bitrate=1824.9kbits/s speed=0.977x    frame=  740 fps= 29 q=18.0 size=    5376KiB time=00:00:24.63 bitrate=1787.8kbits/s speed=0.977x    frame=  755 fps= 29 q=13.0 size=    6912KiB time=00:00:25.13 bitrate=2252.9kbits/s speed=0.977x    frame=  769 fps= 29 q=13.0 size=    6912KiB time=00:00:25.60 bitrate=2211.9kbits/s speed=0.976x    frame=  785 fps= 29 q=13.0 size=    6912KiB time=00:00:26.20 bitrate=2161.2kbits/s speed=0.98x    frame=  800 fps= 29 q=14.0 size=    6912KiB time=00:00:26.70 bitrate=2120.7kbits/s speed=0.98x    frame=  815 fps= 29 q=14.0 size=    7168KiB time=00:00:27.20 bitrate=2158.8kbits/s speed=0.98x    frame=  830 fps= 29 q=13.0 size=    8192KiB time=00:00:27.70 bitrate=2422.7kbits/s speed=0.981x    frame=  845 fps= 29 q=13.0 size=    8192KiB time=00:00:28.20 bitrate=2379.8kbits/s speed=0.981x    frame=  860 fps= 29 q=14.0 size=    8192KiB time=00:00:28.70 bitrate=2338.3kbits/s speed=0.981x    frame=  875 fps= 29 q=14.0 size=    8448KiB time=00:00:29.20 bitrate=2370.1kbits/s speed=0.981x    frame=  890 fps= 29 q=13.0 size=    8448KiB time=00:00:29.70 bitrate=2330.2kbits/s speed=0.982x    frame=  905 fps= 29 q=13.0 size=    9472KiB time=00:00:30.20 bitrate=2569.4kbits/s speed=0.982x    frame=  920 fps= 29 q=13.0 size=    9472KiB time=00:00:30.70 bitrate=2527.5kbits/s speed=0.982x    frame=  935 fps= 29 q=13.0 size=    9472KiB time=00:00:31.20 bitrate=2487.0kbits/s speed=0.982x    frame=  950 fps= 29 q=13.0 size=    9472KiB time=00:00:31.70 bitrate=2447.8kbits/s speed=0.982x    frame=  966 fps= 29 q=13.0 size=    9728KiB time=00:00:32.23 bitrate=2472.4kbits/s speed=0.983x    frame=  981 fps= 29 q=14.0 size=    9728KiB time=00:00:32.73 bitrate=2434.6kbits/s speed=0.983x    frame=  996 fps= 29 q=13.0 size=    9984KiB time=00:00:33.23 bitrate=2461.1kbits/s speed=0.984x    frame= 1011 fps= 29 q=13.0 size=   10752KiB time=00:00:33.73 bitrate=2611.1kbits/s speed=0.984x    frame= 1026 fps= 29 q=17.0 size=   11008KiB time=00:00:34.23 bitrate=2634.2kbits/s speed=0.984x    frame= 1041 fps= 29 q=14.0 size=   11520KiB time=00:00:34.73 bitrate=2717.1kbits/s speed=0.984x    frame= 1056 fps= 29 q=13.0 size=   11520KiB time=00:00:35.23 bitrate=2678.5kbits/s speed=0.984x    frame= 1071 fps= 29 q=16.0 size=   11520KiB time=00:00:35.73 bitrate=2641.0kbits/s speed=0.984x    frame= 1087 fps= 30 q=20.0 size=   11776KiB time=00:00:36.26 bitrate=2660.0kbits/s speed=0.985x    frame= 1102 fps= 30 q=13.0 size=   12288KiB time=00:00:36.76 bitrate=2737.9kbits/s speed=0.985x    frame= 1117 fps= 30 q=13.0 size=   12544KiB time=00:00:37.26 bitrate=2757.4kbits/s speed=0.985x    frame= 1132 fps= 30 q=13.0 size=   12544KiB time=00:00:37.76 bitrate=2720.9kbits/s speed=0.985x    frame= 1147 fps= 30 q=13.0 size=   12544KiB time=00:00:38.26 bitrate=2685.4kbits/s speed=0.986x    frame= 1162 fps= 30 q=13.0 size=   12544KiB time=00:00:38.76 bitrate=2650.8kbits/s speed=0.986x    frame= 1177 fps= 30 q=13.0 size=   12544KiB time=00:00:39.26 bitrate=2617.0kbits/s speed=0.986x    frame= 1192 fps= 30 q=13.0 size=   12544KiB time=00:00:39.76 bitrate=2584.1kbits/s speed=0.986x    [out#0/mp4 @ 0x600000408540] video:12694KiB audio:0KiB subtitle:0KiB other streams:0KiB global headers:0KiB muxing overhead: 0.095607%
frame= 1220 fps= 30 q=-1.0 Lsize=   12706KiB time=00:00:40.70 bitrate=2557.5kbits/s speed=0.998x    
[libx264 @ 0x146722870] frame I:5     Avg QP:12.20  size:1263759
[libx264 @ 0x146722870] frame P:1215  Avg QP:13.33  size:  5498
[libx264 @ 0x146722870] mb I  I16..4: 100.0%  0.0%  0.0%
[libx264 @ 0x146722870] mb P  I16..4:  1.0%  0.0%  0.0%  P16..4:  0.4%  0.0%  0.0%  0.0%  0.0%    skip:98.6%
[libx264 @ 0x146722870] coded y,uvDC,uvAC intra: 12.9% 15.5% 10.7% inter: 0.1% 0.2% 0.1%
[libx264 @ 0x146722870] i16 v,h,dc,p: 83% 12%  3%  2%
[libx264 @ 0x146722870] i8c dc,h,v,p: 66%  9% 23%  2%
[libx264 @ 0x146722870] kb/s:2552.88
